<svg width="24" height="24" viewBox="0 0 24 24" fill="none" xmlns="http://www.w3.org/2000/svg">
<path d="M21.8184 21.8184H2.18164V9.81836H21.8184V21.8184ZM4.36328 20.7275H20.7275V14.1816H4.36328V20.7275ZM16.3633 19.6367H14.1816V17.4541H16.3633V19.6367ZM19.6367 19.6367H17.4541V17.4541H19.6367V19.6367ZM4.36328 12H20.7275V10.9092H4.36328V12ZM12 5.31836C13.3419 5.31836 14.4599 6.27199 14.7168 7.53809L13.7363 7.7373C13.5721 6.92736 12.8563 6.31836 12 6.31836C11.1437 6.31837 10.4279 6.92737 10.2637 7.7373L9.2832 7.53809C9.54008 6.27199 10.6581 5.31837 12 5.31836ZM12 3.50684C13.999 3.50711 15.6984 4.78641 16.3281 6.56934L15.8564 6.73633L15.3848 6.90234C14.8915 5.50617 13.5614 4.50711 12 4.50684C10.4384 4.50684 9.10758 5.50603 8.61426 6.90234L8.14258 6.73633L7.6709 6.56934C8.30074 4.78627 10.0007 3.50684 12 3.50684ZM12 1.68164C14.6662 1.68182 16.952 3.31164 17.917 5.62793L16.9932 6.0127C16.1778 4.05563 14.2481 2.68182 12 2.68164C9.75207 2.68182 7.8233 4.05581 7.00781 6.0127L6.08398 5.62793C7.04908 3.31182 9.33389 1.68182 12 1.68164Z" fill="#4B1574"/>
</svg>
