<svg width="24" height="24" viewBox="0 0 24 24" fill="none" xmlns="http://www.w3.org/2000/svg">
<path d="M15.1633 13.3092L13.8542 15.8183C13.8542 15.8183 12.2178 15.0547 10.5815 13.4183C8.94512 11.7819 8.29057 10.3637 8.29057 10.3637L10.3633 9.05465L6.98148 2.29102L1.74512 4.80011C1.74512 4.80011 3.59966 19.4183 19.1997 22.2547L21.4906 16.4728L15.1633 13.3092ZM8.50875 7.52738L6.54512 8.72738C6.54512 8.72738 8.07239 12.2183 9.92694 13.9637C11.6724 15.7092 13.4178 16.5819 13.4178 16.5819L14.1815 16.9092L14.6178 16.1456L15.5997 14.4001L20.3997 16.8001L19.1997 19.9637C6.21785 16.8001 4.03603 6.21829 3.70875 4.80011L6.54512 3.49102L8.50875 7.52738Z" fill="#4B1574"/>
<path d="M15.1636 9.0546L19.0909 5.12733L19.3091 7.52733L20.1818 7.41824L19.9636 4.03642V3.70915L19.5273 3.60006L16.1454 3.49097L16.0363 4.36369L18.5454 4.47278L14.6182 8.40006L15.1636 9.0546Z" fill="#4B1574"/>
</svg>
