<svg width="24" height="24" viewBox="0 0 24 24" fill="none" xmlns="http://www.w3.org/2000/svg">
<path d="M14.5091 10.3636C14.2909 10.1454 13.9636 9.8181 13.7455 9.59992L13.6364 9.49083C13.8545 9.16356 13.8545 8.83629 13.7455 8.50901C13.6364 8.29083 13.4182 8.07265 13.2 7.85447C13.3091 7.63628 13.4182 7.52719 13.5273 7.30901L13.6364 7.19992C13.8545 6.76356 14.1818 6.2181 14.2909 5.67265C14.4 5.23628 14.4 4.90901 14.0727 4.58174C13.8545 4.25447 13.4182 4.14538 12.9818 4.25447C12.5455 4.36356 12.1091 4.47265 11.5636 4.58174C10.4727 4.90901 9.38182 5.0181 8.4 4.69083C7.63636 4.47265 7.09091 4.36356 6.54545 4.25447C6.10909 4.14538 5.78182 4.25447 5.56364 4.47265C5.34545 4.69083 5.23636 5.12719 5.23636 5.56356C5.34545 6.2181 5.67273 6.76356 6 7.19992C6.10909 7.4181 6.21818 7.63628 6.32727 7.74538C6.10909 7.96356 5.89091 8.18174 5.78182 8.39992C5.67273 8.72719 5.67273 9.05447 5.89091 9.38174C4.69091 10.5817 3.16364 12.2181 2.18182 14.2908C1.63636 15.3817 1.41818 16.4726 1.52727 17.5636C1.63636 18.7636 2.07273 19.7454 2.83636 20.509C3.6 21.2726 4.58182 21.8181 5.89091 22.1454C7.09091 22.4726 8.4 22.6908 9.70909 22.6908C10.3636 22.6908 11.0182 22.6908 11.7818 22.5817C13.3091 22.3636 14.5091 21.9272 15.6 21.3817C17.1273 20.3999 17.8909 19.0908 18 17.4545C18.1091 16.0363 17.6727 14.7272 16.8 13.309C16.1455 12.2181 15.3818 11.3454 14.5091 10.3636ZM11.6727 5.34538C12.1091 5.23629 12.5455 5.12719 12.9818 5.0181C13.0909 5.0181 13.3091 5.0181 13.3091 5.12719C13.3091 5.12719 13.3091 5.34538 13.3091 5.45447C13.2 5.89083 12.8727 6.43629 12.6545 6.87265L12.5455 6.98174C12.4364 7.19992 12.3273 7.4181 12.2182 7.52719V7.63629H8.29091C7.96364 7.09083 7.63636 6.54538 7.30909 6.10901C8.29091 6.32719 9.49091 6.43629 9.70909 6.43629V5.67265C10.3636 5.67265 11.0182 5.56356 11.6727 5.34538ZM6.65454 9.05447C6.65454 8.94538 6.54545 8.83628 6.65454 8.72719C6.76364 8.6181 6.87273 8.50901 7.09091 8.50901H12.5455C12.7636 8.50901 12.8727 8.6181 12.9818 8.72719C12.9818 8.83628 12.9818 8.94538 12.8727 9.16356H10.6909H9.16364H6.65454V9.05447ZM15.0545 20.6181C14.1818 21.1636 12.9818 21.4908 11.5636 21.709C11.0182 21.8181 10.3636 21.8181 9.70909 21.8181V21.0545C6.98182 21.0545 5.01818 20.3999 4.03636 19.0908C3.05455 17.6726 3.49091 16.0363 3.6 15.5999C4.47273 12.9817 6.98182 10.2545 7.2 9.92719H7.85454C7.85454 10.2545 7.63636 10.4726 7.63636 10.5817C7.52727 10.7999 7.63636 11.0181 7.85454 11.1272C8.07273 11.2363 8.29091 11.1272 8.4 10.909C8.61818 10.4726 8.94545 9.92719 9.16364 9.92719H10.4727C10.5818 10.0363 11.0182 10.2545 10.9091 10.6908C10.9091 10.909 11.0182 11.1272 11.2364 11.1272C11.2364 11.1272 11.2364 11.1272 11.3455 11.1272C11.5636 11.1272 11.7818 11.0181 11.7818 10.7999C11.8909 10.4726 11.7818 10.1454 11.6727 9.92719H12.9818L13.0909 10.1454C13.3091 10.3636 13.6364 10.6908 13.8545 10.909C14.7273 11.7817 15.3818 12.6545 15.9273 13.6363C16.6909 14.9454 17.0182 16.1454 17.0182 17.3454C17.0182 18.7636 16.3636 19.7454 15.0545 20.6181Z" fill="#4B1574"/>
<path d="M19.8553 1.63635L19.6371 1.30908L19.3099 1.63635L16.8008 3.92726L17.3462 4.58181L19.2008 2.94545V8.50908H20.0735V2.94545L21.819 4.58181L22.4735 3.92726L19.8553 1.63635Z" fill="#4B1574"/>
</svg>
