<svg width="24" height="24" viewBox="0 0 24 24" fill="none" xmlns="http://www.w3.org/2000/svg">
<rect x="2.55758" y="5.62619" width="18.8845" height="12.7481" rx="1.97887" fill="white" stroke="#4B1574" stroke-width="0.751888"/>
<path d="M17.7029 13.4131H17.7185L18.53 10.8291H19.2312L18.0232 14.1738C17.7465 14.9408 17.4294 15.1932 16.7595 15.1934C16.7074 15.1934 16.5387 15.1869 16.4919 15.1748V14.6504C16.5352 14.6563 16.6399 14.6621 16.695 14.6621C16.9988 14.6619 17.1716 14.5351 17.2761 14.208L17.3376 14.0137L16.1716 10.8291H16.8913L17.7029 13.4131ZM7.57395 10.4404C7.72809 10.4523 8.17139 10.4995 8.45481 10.9131C8.43128 10.9308 7.92854 11.2168 7.93431 11.8174C7.94033 12.5319 8.568 12.7726 8.57884 12.7803C8.57264 12.7989 8.47793 13.1194 8.24778 13.4512C8.04697 13.7428 7.84001 14.0289 7.5095 14.0352C7.19034 14.041 7.08257 13.8488 6.71653 13.8486C6.35047 13.8488 6.23164 14.0292 5.9304 14.041C5.61148 14.0524 5.36956 13.7309 5.16868 13.4395C4.75481 12.8501 4.44145 11.7773 4.86692 11.0537C5.07381 10.692 5.45234 10.464 5.86009 10.458C6.17316 10.4527 6.46284 10.6621 6.65208 10.6621C6.84129 10.6618 7.17812 10.4173 7.57395 10.4404ZM14.6062 10.79C15.393 10.7902 15.907 11.1965 15.907 11.8271V14.0049H15.2702V13.4795H15.2546C15.0733 13.8222 14.6735 14.038 14.24 14.0381C13.6006 14.0381 13.1551 13.6616 13.155 13.0977C13.155 12.5365 13.5882 12.2155 14.3874 12.167L15.2458 12.1152V11.8721C15.2457 11.5175 15.0085 11.3234 14.5876 11.3232C14.2401 11.3232 13.9884 11.4996 13.9363 11.7695H13.3142C13.3326 11.2023 13.8743 10.79 14.6062 10.79ZM11.5232 9.62793C12.384 9.6281 12.984 10.2133 12.9841 11.0654C12.984 11.9205 12.3716 12.5096 11.5017 12.5098H10.5486V14.0049H9.86009V9.62793H11.5232ZM14.4802 12.6182C14.0499 12.6453 13.8251 12.8034 13.8249 13.0791C13.8251 13.3459 14.0587 13.5195 14.4245 13.5195C14.8915 13.5194 15.2457 13.2246 15.2458 12.8154V12.5703L14.4802 12.6182ZM10.5486 11.9395H11.3386C11.9379 11.9393 12.2799 11.6201 12.28 11.0684C12.2799 10.5168 11.9384 10.2015 11.3425 10.2012H10.5486V11.9395ZM7.57688 9.29395C7.60657 9.57491 7.49381 9.84991 7.32786 10.0547C7.15595 10.2536 6.8837 10.4118 6.61106 10.3887C6.57546 10.1195 6.71181 9.83272 6.86595 9.65723C7.03759 9.45223 7.33393 9.30596 7.57688 9.29395Z" fill="#4B1574"/>
</svg>
