<svg width="24" height="24" viewBox="0 0 24 24" fill="none" xmlns="http://www.w3.org/2000/svg">
<path d="M21.7083 5.34524L19.8538 6.98161V1.41797H18.9811V6.98161L17.1265 5.34524L16.5811 5.99979L19.0901 8.2907L19.4174 8.61797L19.7447 8.2907L22.2538 5.99979L21.7083 5.34524Z" fill="#4B1574"/>
<path d="M9.59966 6.21797V4.6907H9.1633C8.50875 4.6907 7.9633 4.14524 7.9633 3.4907C7.9633 2.83615 8.50875 2.2907 9.1633 2.2907C9.81784 2.2907 10.3633 2.83615 10.3633 3.4907H11.236C11.236 2.39979 10.2542 1.41797 9.1633 1.41797C8.07239 1.41797 7.09057 2.39979 7.09057 3.4907C7.09057 4.47251 7.74512 5.34524 8.72694 5.56342V5.99979C4.79966 6.32706 1.74512 8.61797 1.74512 11.5634H3.92694C3.92694 9.81797 5.99966 8.39979 8.72694 8.1816V18.5452H9.59966V8.39979V7.0907C12.6542 7.30888 15.1633 9.05433 15.1633 11.1271V21.7089H3.92694V11.4543H1.74512V22.5816H2.39966H3.92694H15.9269V21.7089V11.1271C15.9269 8.50888 13.1997 6.43615 9.59966 6.21797Z" fill="#4B1574"/>
</svg>
