<svg width="24" height="24" viewBox="0 0 24 24" fill="none" xmlns="http://www.w3.org/2000/svg">
<mask id="path-1-inside-1_30502_9955" fill="white">
<path d="M21.4434 17.134H6.80762L1.80664 21.4651V3.27271H21.4434V17.134Z"/>
</mask>
<path d="M21.4434 17.134V18.2249H22.5343V17.134H21.4434ZM6.80762 17.134V16.0431H6.40089L6.09344 16.3094L6.80762 17.134ZM1.80664 21.4651H0.715732V23.853L2.52082 22.2897L1.80664 21.4651ZM1.80664 3.27271V2.1818H0.715732V3.27271H1.80664ZM21.4434 3.27271H22.5343V2.1818H21.4434V3.27271ZM21.4434 17.134V16.0431H6.80762V17.134V18.2249H21.4434V17.134ZM6.80762 17.134L6.09344 16.3094L1.09247 20.6404L1.80664 21.4651L2.52082 22.2897L7.52179 17.9587L6.80762 17.134ZM1.80664 21.4651H2.89755V3.27271H1.80664H0.715732V21.4651H1.80664ZM1.80664 3.27271V4.36361H21.4434V3.27271V2.1818H1.80664V3.27271ZM21.4434 3.27271H20.3524V17.134H21.4434H22.5343V3.27271H21.4434Z" fill="#4B1574" mask="url(#path-1-inside-1_30502_9955)"/>
<line x1="7.26172" y1="8.18184" x2="17.0799" y2="8.18184" stroke="#4B1574" stroke-width="1.09091"/>
<line x1="7.26172" y1="10.3637" x2="17.0799" y2="10.3637" stroke="#4B1574" stroke-width="1.09091"/>
<line x1="7.26172" y1="12.5454" x2="17.0799" y2="12.5454" stroke="#4B1574" stroke-width="1.09091"/>
<path d="M2.89746 19.6363V4.36353" stroke="#4B1574" stroke-width="1.09091"/>
<path d="M3.98828 18.5453V4.36353" stroke="#4B1574" stroke-width="1.09091"/>
</svg>
