<svg width="24" height="24" viewBox="0 0 24 24" fill="none" xmlns="http://www.w3.org/2000/svg">
<path d="M20.9455 7.41803H20.291H18.2183L15.9273 5.12712L15.0546 4.25439H13.8546H10.8001H7.85462L6.98189 5.12712L4.58189 7.41803H3.81825H2.0728H1.52734V19.7453H2.0728H3.70916H20.1819H21.8183H22.3637V7.41803H20.9455ZM20.1819 18.8726H3.81825V8.29076H6.98189L7.63643 7.52712L10.1455 5.01803H14.7273L17.891 8.18167H20.291V18.8726H20.1819Z" fill="#4B1574"/>
<path d="M11.9999 10.0361C10.3635 10.0361 8.94531 11.3452 8.94531 13.0907C8.94531 14.8361 10.3635 16.1452 11.9999 16.1452C13.6362 16.1452 15.0544 14.727 15.0544 13.0907C15.0544 11.4543 13.6362 10.0361 11.9999 10.0361ZM11.9999 15.2725V10.9089C13.1999 10.9089 14.1817 11.8907 14.1817 13.0907C14.1817 14.2907 13.1999 15.2725 11.9999 15.2725Z" fill="#4B1574"/>
</svg>
