<svg width="24" height="24" viewBox="0 0 24 24" fill="none" xmlns="http://www.w3.org/2000/svg">
<path d="M23.0178 13.3091L15.8178 6.10913H1.74512V6.54549V6.98186V17.3455V18.2182H3.92694H5.12694C5.34512 19.0909 6.10875 19.8546 7.09057 19.8546C8.07239 19.8546 8.94512 19.2 9.05421 18.2182H14.2906C14.5088 19.0909 15.2724 19.8546 16.2542 19.8546C17.236 19.8546 18.1088 19.2 18.2178 18.2182H19.5269H21.4906H21.8178V13.5273L22.3633 14.0728L23.0178 13.3091ZM7.19966 18.8728V16.4728C7.85421 16.4728 8.39966 17.0182 8.39966 17.6728C8.39966 18.3273 7.85421 18.8728 7.19966 18.8728ZM16.3633 18.8728V16.4728C17.0178 16.4728 17.5633 17.0182 17.5633 17.6728C17.5633 18.3273 17.0178 18.8728 16.3633 18.8728ZM19.7451 17.2364H18.436C18.2178 16.3637 17.4542 15.6 16.4724 15.6C15.4906 15.6 14.6178 16.2546 14.5088 17.2364H9.1633C8.94512 16.3637 8.18148 15.6 7.19966 15.6C6.21784 15.6 5.34512 16.3637 5.12694 17.2364H3.92694V6.98186H15.4906L17.0178 8.50913H5.67239V9.38186H17.8906L19.7451 11.2364V17.2364Z" fill="#4B1574"/>
</svg>
